<svg width="24" height="24" viewBox="0 0 24 24" fill="none" xmlns="http://www.w3.org/2000/svg">
<path d="M4.70556 0.00610352C2.12036 0.00610352 0.0045166 2.1219 0.0045166 4.70715V19.2953C0.0045166 21.8805 2.12031 23.9956 4.70556 23.9956H19.2937C21.879 23.9956 23.994 21.8806 23.994 19.2953V4.70715C23.994 2.12194 21.879 0.00610352 19.2937 0.00610352H4.70556ZM5.88795 3.96486C7.1275 3.96486 7.89101 4.7786 7.91458 5.84826C7.91458 6.8943 7.12745 7.73091 5.86397 7.73091H5.84072C4.62476 7.73091 3.83883 6.89434 3.83883 5.84826C3.83883 4.77862 4.64854 3.96486 5.88792 3.96486H5.88795ZM16.5699 8.9643C18.9538 8.9643 20.7408 10.5224 20.7408 13.8708V20.1215H17.118V14.2898C17.118 12.8244 16.5936 11.8246 15.2825 11.8246C14.2816 11.8246 13.685 12.4985 13.4231 13.1495C13.3274 13.3824 13.3039 13.7076 13.3039 14.0334V20.1215H9.68103C9.68103 20.1215 9.72857 10.2428 9.68103 9.21994H13.3046V10.7637C13.7861 10.0209 14.6473 8.96427 16.5699 8.96427V8.9643ZM4.05253 9.22074H7.6754V20.1216H4.05253V9.22074Z" fill="white"/>
</svg>
